<svg id="visual" viewBox="0 0 900 600" width="900" height="600" xmlns="http://www.w3.org/2000/svg" xmlns:xlink="http://www.w3.org/1999/xlink" version="1.1"><g stroke-width="1" stroke-linejoin="bevel"><path d="M432 317L406 350L440 360Z" fill="#316882" stroke="#FFFFFF"></path><path d="M406 350L429 390L440 360Z" fill="#2b7a95" stroke="#FFFFFF"></path><path d="M432 317L389 295L406 350Z" fill="#00c6cd" stroke="#FFFFFF"></path><path d="M389 295L358 329L406 350Z" fill="#316882" stroke="#FFFFFF"></path><path d="M406 350L395 414L429 390Z" fill="#00c6cd" stroke="#FFFFFF"></path><path d="M389 295L369 299L358 329Z" fill="#00c6cd" stroke="#FFFFFF"></path><path d="M514 404L507 346L440 360Z" fill="#218ca6" stroke="#FFFFFF"></path><path d="M440 360L507 346L432 317Z" fill="#252a34" stroke="#FFFFFF"></path><path d="M432 317L417 240L389 295Z" fill="#32576f" stroke="#FFFFFF"></path><path d="M359 411L395 414L406 350Z" fill="#2b7a95" stroke="#FFFFFF"></path><path d="M514 404L534 337L507 346Z" fill="#31475b" stroke="#FFFFFF"></path><path d="M358 329L359 411L406 350Z" fill="#316882" stroke="#FFFFFF"></path><path d="M469 243L417 240L432 317Z" fill="#08d9d6" stroke="#FFFFFF"></path><path d="M389 295L331 245L369 299Z" fill="#252a34" stroke="#FFFFFF"></path><path d="M513 278L469 243L432 317Z" fill="#252a34" stroke="#FFFFFF"></path><path d="M507 346L513 278L432 317Z" fill="#109fb5" stroke="#FFFFFF"></path><path d="M514 404L440 360L429 390Z" fill="#00c6cd" stroke="#FFFFFF"></path><path d="M507 346L534 337L513 278Z" fill="#2c3847" stroke="#FFFFFF"></path><path d="M499 446L514 404L429 390Z" fill="#2c3847" stroke="#FFFFFF"></path><path d="M548 285L520 266L513 278Z" fill="#31475b" stroke="#FFFFFF"></path><path d="M513 278L520 266L469 243Z" fill="#2c3847" stroke="#FFFFFF"></path><path d="M384 464L454 456L395 414Z" fill="#00c6cd" stroke="#FFFFFF"></path><path d="M395 414L454 456L429 390Z" fill="#218ca6" stroke="#FFFFFF"></path><path d="M469 243L417 219L417 240Z" fill="#00b2c2" stroke="#FFFFFF"></path><path d="M417 240L331 245L389 295Z" fill="#2c3847" stroke="#FFFFFF"></path><path d="M471 217L417 219L469 243Z" fill="#00b2c2" stroke="#FFFFFF"></path><path d="M369 299L310 308L358 329Z" fill="#2b7a95" stroke="#FFFFFF"></path><path d="M358 329L287 333L359 411Z" fill="#31475b" stroke="#FFFFFF"></path><path d="M306 262L310 308L369 299Z" fill="#08d9d6" stroke="#FFFFFF"></path><path d="M454 456L499 446L429 390Z" fill="#109fb5" stroke="#FFFFFF"></path><path d="M489 208L471 217L469 243Z" fill="#252a34" stroke="#FFFFFF"></path><path d="M356 457L395 414L359 411Z" fill="#109fb5" stroke="#FFFFFF"></path><path d="M356 457L384 464L395 414Z" fill="#316882" stroke="#FFFFFF"></path><path d="M547 435L539 410L514 404Z" fill="#109fb5" stroke="#FFFFFF"></path><path d="M514 404L539 410L534 337Z" fill="#31475b" stroke="#FFFFFF"></path><path d="M534 337L548 285L513 278Z" fill="#00b2c2" stroke="#FFFFFF"></path><path d="M520 266L489 208L469 243Z" fill="#218ca6" stroke="#FFFFFF"></path><path d="M588 292L548 285L534 337Z" fill="#252a34" stroke="#FFFFFF"></path><path d="M417 219L331 245L417 240Z" fill="#31475b" stroke="#FFFFFF"></path><path d="M288 410L356 457L359 411Z" fill="#31475b" stroke="#FFFFFF"></path><path d="M238 306L287 333L310 308Z" fill="#2c3847" stroke="#FFFFFF"></path><path d="M310 308L287 333L358 329Z" fill="#00c6cd" stroke="#FFFFFF"></path><path d="M331 245L306 262L369 299Z" fill="#32576f" stroke="#FFFFFF"></path><path d="M530 216L489 208L520 266Z" fill="#252a34" stroke="#FFFFFF"></path><path d="M471 217L402 171L417 219Z" fill="#32576f" stroke="#FFFFFF"></path><path d="M548 285L546 249L520 266Z" fill="#252a34" stroke="#FFFFFF"></path><path d="M499 446L547 435L514 404Z" fill="#252a34" stroke="#FFFFFF"></path><path d="M596 337L588 292L534 337Z" fill="#252a34" stroke="#FFFFFF"></path><path d="M287 333L288 410L359 411Z" fill="#00c6cd" stroke="#FFFFFF"></path><path d="M402 171L329 215L417 219Z" fill="#2b7a95" stroke="#FFFFFF"></path><path d="M417 219L329 215L331 245Z" fill="#2b7a95" stroke="#FFFFFF"></path><path d="M331 245L306 205L306 262Z" fill="#2b7a95" stroke="#FFFFFF"></path><path d="M546 249L530 216L520 266Z" fill="#00c6cd" stroke="#FFFFFF"></path><path d="M454 456L489 495L499 446Z" fill="#252a34" stroke="#FFFFFF"></path><path d="M499 446L548 513L547 435Z" fill="#08d9d6" stroke="#FFFFFF"></path><path d="M454 520L489 495L454 456Z" fill="#00b2c2" stroke="#FFFFFF"></path><path d="M411 520L454 456L384 464Z" fill="#31475b" stroke="#FFFFFF"></path><path d="M596 337L534 337L539 410Z" fill="#2b7a95" stroke="#FFFFFF"></path><path d="M548 285L578 239L546 249Z" fill="#316882" stroke="#FFFFFF"></path><path d="M546 249L578 239L530 216Z" fill="#31475b" stroke="#FFFFFF"></path><path d="M619 415L596 337L539 410Z" fill="#2b7a95" stroke="#FFFFFF"></path><path d="M494 160L471 217L489 208Z" fill="#218ca6" stroke="#FFFFFF"></path><path d="M461 142L402 171L471 217Z" fill="#00b2c2" stroke="#FFFFFF"></path><path d="M238 306L253 340L287 333Z" fill="#109fb5" stroke="#FFFFFF"></path><path d="M287 333L240 384L288 410Z" fill="#2c3847" stroke="#FFFFFF"></path><path d="M250 267L310 308L306 262Z" fill="#218ca6" stroke="#FFFFFF"></path><path d="M338 513L384 464L356 457Z" fill="#316882" stroke="#FFFFFF"></path><path d="M356 531L411 520L384 464Z" fill="#00c6cd" stroke="#FFFFFF"></path><path d="M588 292L578 239L548 285Z" fill="#31475b" stroke="#FFFFFF"></path><path d="M306 161L306 205L329 215Z" fill="#316882" stroke="#FFFFFF"></path><path d="M329 215L306 205L331 245Z" fill="#00c6cd" stroke="#FFFFFF"></path><path d="M411 520L454 520L454 456Z" fill="#00b2c2" stroke="#FFFFFF"></path><path d="M306 205L250 267L306 262Z" fill="#08d9d6" stroke="#FFFFFF"></path><path d="M558 154L494 160L530 216Z" fill="#31475b" stroke="#FFFFFF"></path><path d="M530 216L494 160L489 208Z" fill="#252a34" stroke="#FFFFFF"></path><path d="M248 482L283 467L232 464Z" fill="#00c6cd" stroke="#FFFFFF"></path><path d="M288 410L283 467L356 457Z" fill="#32576f" stroke="#FFFFFF"></path><path d="M250 267L238 306L310 308Z" fill="#32576f" stroke="#FFFFFF"></path><path d="M253 340L240 384L287 333Z" fill="#31475b" stroke="#FFFFFF"></path><path d="M187 335L240 384L253 340Z" fill="#2c3847" stroke="#FFFFFF"></path><path d="M315 502L338 513L356 457Z" fill="#00c6cd" stroke="#FFFFFF"></path><path d="M548 513L578 466L547 435Z" fill="#218ca6" stroke="#FFFFFF"></path><path d="M547 435L619 415L539 410Z" fill="#316882" stroke="#FFFFFF"></path><path d="M548 513L499 446L489 495Z" fill="#08d9d6" stroke="#FFFFFF"></path><path d="M283 467L315 502L356 457Z" fill="#32576f" stroke="#FFFFFF"></path><path d="M494 160L461 142L471 217Z" fill="#218ca6" stroke="#FFFFFF"></path><path d="M402 171L352 147L329 215Z" fill="#00b2c2" stroke="#FFFFFF"></path><path d="M284 548L356 531L338 513Z" fill="#00b2c2" stroke="#FFFFFF"></path><path d="M338 513L356 531L384 464Z" fill="#218ca6" stroke="#FFFFFF"></path><path d="M438 552L478 542L454 520Z" fill="#109fb5" stroke="#FFFFFF"></path><path d="M578 466L619 415L547 435Z" fill="#109fb5" stroke="#FFFFFF"></path><path d="M596 337L662 281L588 292Z" fill="#08d9d6" stroke="#FFFFFF"></path><path d="M630 201L601 198L578 239Z" fill="#2c3847" stroke="#FFFFFF"></path><path d="M383 119L352 147L402 171Z" fill="#252a34" stroke="#FFFFFF"></path><path d="M306 205L250 187L250 267Z" fill="#109fb5" stroke="#FFFFFF"></path><path d="M438 552L454 520L411 520Z" fill="#08d9d6" stroke="#FFFFFF"></path><path d="M454 520L478 542L489 495Z" fill="#32576f" stroke="#FFFFFF"></path><path d="M478 542L548 513L489 495Z" fill="#00b2c2" stroke="#FFFFFF"></path><path d="M664 455L630 406L619 415Z" fill="#252a34" stroke="#FFFFFF"></path><path d="M386 555L438 552L411 520Z" fill="#252a34" stroke="#FFFFFF"></path><path d="M664 455L619 415L578 466Z" fill="#00b2c2" stroke="#FFFFFF"></path><path d="M619 415L630 406L596 337Z" fill="#316882" stroke="#FFFFFF"></path><path d="M352 147L306 161L329 215Z" fill="#2b7a95" stroke="#FFFFFF"></path><path d="M356 600L386 555L356 531Z" fill="#00b2c2" stroke="#FFFFFF"></path><path d="M356 531L386 555L411 520Z" fill="#32576f" stroke="#FFFFFF"></path><path d="M553 542L583 499L548 513Z" fill="#252a34" stroke="#FFFFFF"></path><path d="M548 513L583 499L578 466Z" fill="#08d9d6" stroke="#FFFFFF"></path><path d="M662 281L578 239L588 292Z" fill="#252a34" stroke="#FFFFFF"></path><path d="M578 239L601 198L530 216Z" fill="#31475b" stroke="#FFFFFF"></path><path d="M513 83L444 100L461 142Z" fill="#32576f" stroke="#FFFFFF"></path><path d="M461 142L383 119L402 171Z" fill="#2b7a95" stroke="#FFFFFF"></path><path d="M312 107L257 148L306 161Z" fill="#31475b" stroke="#FFFFFF"></path><path d="M582 160L558 154L530 216Z" fill="#32576f" stroke="#FFFFFF"></path><path d="M461 142L444 100L383 119Z" fill="#32576f" stroke="#FFFFFF"></path><path d="M682 340L655 360L696 384Z" fill="#32576f" stroke="#FFFFFF"></path><path d="M630 406L655 360L596 337Z" fill="#316882" stroke="#FFFFFF"></path><path d="M232 464L283 467L288 410Z" fill="#2b7a95" stroke="#FFFFFF"></path><path d="M283 467L261 530L315 502Z" fill="#08d9d6" stroke="#FFFFFF"></path><path d="M315 502L284 548L338 513Z" fill="#00c6cd" stroke="#FFFFFF"></path><path d="M240 384L232 464L288 410Z" fill="#109fb5" stroke="#FFFFFF"></path><path d="M178 410L232 464L240 384Z" fill="#218ca6" stroke="#FFFFFF"></path><path d="M306 161L250 187L306 205Z" fill="#2c3847" stroke="#FFFFFF"></path><path d="M188 282L187 335L238 306Z" fill="#00c6cd" stroke="#FFFFFF"></path><path d="M257 148L250 187L306 161Z" fill="#252a34" stroke="#FFFFFF"></path><path d="M601 198L582 160L530 216Z" fill="#08d9d6" stroke="#FFFFFF"></path><path d="M478 542L553 542L548 513Z" fill="#109fb5" stroke="#FFFFFF"></path><path d="M490 600L553 542L478 542Z" fill="#2c3847" stroke="#FFFFFF"></path><path d="M188 282L238 306L250 267Z" fill="#00c6cd" stroke="#FFFFFF"></path><path d="M238 306L187 335L253 340Z" fill="#31475b" stroke="#FFFFFF"></path><path d="M559 116L494 160L558 154Z" fill="#218ca6" stroke="#FFFFFF"></path><path d="M513 83L461 142L494 160Z" fill="#2b7a95" stroke="#FFFFFF"></path><path d="M655 360L662 281L596 337Z" fill="#252a34" stroke="#FFFFFF"></path><path d="M601 198L640 141L582 160Z" fill="#2c3847" stroke="#FFFFFF"></path><path d="M662 281L630 201L578 239Z" fill="#252a34" stroke="#FFFFFF"></path><path d="M178 265L188 282L250 267Z" fill="#2b7a95" stroke="#FFFFFF"></path><path d="M193 530L261 530L248 482Z" fill="#252a34" stroke="#FFFFFF"></path><path d="M248 482L261 530L283 467Z" fill="#109fb5" stroke="#FFFFFF"></path><path d="M261 530L284 548L315 502Z" fill="#32576f" stroke="#FFFFFF"></path><path d="M685 314L671 270L662 281Z" fill="#109fb5" stroke="#FFFFFF"></path><path d="M662 281L671 270L630 201Z" fill="#2c3847" stroke="#FFFFFF"></path><path d="M655 360L685 314L662 281Z" fill="#00b2c2" stroke="#FFFFFF"></path><path d="M696 384L655 360L630 406Z" fill="#32576f" stroke="#FFFFFF"></path><path d="M312 107L352 147L345 88Z" fill="#31475b" stroke="#FFFFFF"></path><path d="M312 107L306 161L352 147Z" fill="#31475b" stroke="#FFFFFF"></path><path d="M250 187L200 214L250 267Z" fill="#218ca6" stroke="#FFFFFF"></path><path d="M682 340L685 314L655 360Z" fill="#32576f" stroke="#FFFFFF"></path><path d="M151 337L178 410L187 335Z" fill="#252a34" stroke="#FFFFFF"></path><path d="M187 335L178 410L240 384Z" fill="#32576f" stroke="#FFFFFF"></path><path d="M232 464L189 487L248 482Z" fill="#31475b" stroke="#FFFFFF"></path><path d="M618 91L559 116L582 160Z" fill="#00c6cd" stroke="#FFFFFF"></path><path d="M582 160L559 116L558 154Z" fill="#109fb5" stroke="#FFFFFF"></path><path d="M214 136L200 214L250 187Z" fill="#2c3847" stroke="#FFFFFF"></path><path d="M345 88L352 147L383 119Z" fill="#252a34" stroke="#FFFFFF"></path><path d="M200 214L178 265L250 267Z" fill="#00b2c2" stroke="#FFFFFF"></path><path d="M188 282L159 286L187 335Z" fill="#32576f" stroke="#FFFFFF"></path><path d="M406 600L447 600L438 552Z" fill="#218ca6" stroke="#FFFFFF"></path><path d="M438 552L447 600L478 542Z" fill="#08d9d6" stroke="#FFFFFF"></path><path d="M406 600L438 552L386 555Z" fill="#316882" stroke="#FFFFFF"></path><path d="M356 600L406 600L386 555Z" fill="#31475b" stroke="#FFFFFF"></path><path d="M670 519L664 455L583 499Z" fill="#32576f" stroke="#FFFFFF"></path><path d="M583 499L664 455L578 466Z" fill="#2c3847" stroke="#FFFFFF"></path><path d="M401 43L345 88L383 119Z" fill="#2b7a95" stroke="#FFFFFF"></path><path d="M447 600L490 600L478 542Z" fill="#2c3847" stroke="#FFFFFF"></path><path d="M553 542L605 562L583 499Z" fill="#00b2c2" stroke="#FFFFFF"></path><path d="M319 600L356 600L356 531Z" fill="#316882" stroke="#FFFFFF"></path><path d="M559 116L513 83L494 160Z" fill="#32576f" stroke="#FFFFFF"></path><path d="M444 100L401 43L383 119Z" fill="#00b2c2" stroke="#FFFFFF"></path><path d="M664 455L696 384L630 406Z" fill="#2c3847" stroke="#FFFFFF"></path><path d="M750 287L718 270L685 314Z" fill="#316882" stroke="#FFFFFF"></path><path d="M138 233L159 286L178 265Z" fill="#08d9d6" stroke="#FFFFFF"></path><path d="M178 265L159 286L188 282Z" fill="#218ca6" stroke="#FFFFFF"></path><path d="M153 449L183 465L178 410Z" fill="#252a34" stroke="#FFFFFF"></path><path d="M178 410L183 465L232 464Z" fill="#109fb5" stroke="#FFFFFF"></path><path d="M159 286L151 337L187 335Z" fill="#109fb5" stroke="#FFFFFF"></path><path d="M183 465L189 487L232 464Z" fill="#2c3847" stroke="#FFFFFF"></path><path d="M229 600L319 600L284 548Z" fill="#109fb5" stroke="#FFFFFF"></path><path d="M284 548L319 600L356 531Z" fill="#252a34" stroke="#FFFFFF"></path><path d="M229 600L284 548L261 530Z" fill="#218ca6" stroke="#FFFFFF"></path><path d="M567 600L605 562L553 542Z" fill="#00b2c2" stroke="#FFFFFF"></path><path d="M721 179L640 141L630 201Z" fill="#2c3847" stroke="#FFFFFF"></path><path d="M630 201L640 141L601 198Z" fill="#00c6cd" stroke="#FFFFFF"></path><path d="M559 116L551 63L513 83Z" fill="#32576f" stroke="#FFFFFF"></path><path d="M721 179L630 201L671 270Z" fill="#2c3847" stroke="#FFFFFF"></path><path d="M151 337L142 400L178 410Z" fill="#2b7a95" stroke="#FFFFFF"></path><path d="M183 465L155 520L189 487Z" fill="#109fb5" stroke="#FFFFFF"></path><path d="M670 519L696 455L664 455Z" fill="#109fb5" stroke="#FFFFFF"></path><path d="M664 455L696 455L696 384Z" fill="#00b2c2" stroke="#FFFFFF"></path><path d="M490 600L567 600L553 542Z" fill="#31475b" stroke="#FFFFFF"></path><path d="M142 400L153 449L178 410Z" fill="#31475b" stroke="#FFFFFF"></path><path d="M257 148L214 136L250 187Z" fill="#00b2c2" stroke="#FFFFFF"></path><path d="M200 214L153 212L178 265Z" fill="#109fb5" stroke="#FFFFFF"></path><path d="M229 121L214 136L257 148Z" fill="#32576f" stroke="#FFFFFF"></path><path d="M229 121L257 148L312 107Z" fill="#31475b" stroke="#FFFFFF"></path><path d="M219 101L229 121L253 63Z" fill="#316882" stroke="#FFFFFF"></path><path d="M440 30L401 43L444 100Z" fill="#316882" stroke="#FFFFFF"></path><path d="M345 88L280 55L312 107Z" fill="#32576f" stroke="#FFFFFF"></path><path d="M751 357L685 314L682 340Z" fill="#00c6cd" stroke="#FFFFFF"></path><path d="M685 314L718 270L671 270Z" fill="#218ca6" stroke="#FFFFFF"></path><path d="M751 357L682 340L696 384Z" fill="#08d9d6" stroke="#FFFFFF"></path><path d="M658 536L670 519L583 499Z" fill="#00c6cd" stroke="#FFFFFF"></path><path d="M658 536L583 499L605 562Z" fill="#218ca6" stroke="#FFFFFF"></path><path d="M155 520L193 530L189 487Z" fill="#316882" stroke="#FFFFFF"></path><path d="M189 487L193 530L248 482Z" fill="#08d9d6" stroke="#FFFFFF"></path><path d="M684 539L658 536L636 600Z" fill="#08d9d6" stroke="#FFFFFF"></path><path d="M157 148L153 212L200 214Z" fill="#00c6cd" stroke="#FFFFFF"></path><path d="M159 286L113 308L151 337Z" fill="#316882" stroke="#FFFFFF"></path><path d="M84 347L111 415L142 400Z" fill="#00c6cd" stroke="#FFFFFF"></path><path d="M618 91L551 63L559 116Z" fill="#316882" stroke="#FFFFFF"></path><path d="M506 37L440 30L444 100Z" fill="#2c3847" stroke="#FFFFFF"></path><path d="M567 600L587 600L605 562Z" fill="#316882" stroke="#FFFFFF"></path><path d="M153 212L138 233L178 265Z" fill="#00c6cd" stroke="#FFFFFF"></path><path d="M506 37L444 100L513 83Z" fill="#109fb5" stroke="#FFFFFF"></path><path d="M551 63L506 37L513 83Z" fill="#2c3847" stroke="#FFFFFF"></path><path d="M640 141L618 91L582 160Z" fill="#2c3847" stroke="#FFFFFF"></path><path d="M551 63L553 0L506 37Z" fill="#2b7a95" stroke="#FFFFFF"></path><path d="M670 82L618 91L640 141Z" fill="#252a34" stroke="#FFFFFF"></path><path d="M357 0L338 39L401 43Z" fill="#31475b" stroke="#FFFFFF"></path><path d="M401 43L338 39L345 88Z" fill="#00b2c2" stroke="#FFFFFF"></path><path d="M755 448L734 415L696 455Z" fill="#316882" stroke="#FFFFFF"></path><path d="M696 455L734 415L696 384Z" fill="#08d9d6" stroke="#FFFFFF"></path><path d="M114 245L113 308L159 286Z" fill="#2c3847" stroke="#FFFFFF"></path><path d="M142 400L111 415L153 449Z" fill="#32576f" stroke="#FFFFFF"></path><path d="M253 63L229 121L312 107Z" fill="#32576f" stroke="#FFFFFF"></path><path d="M229 121L219 101L214 136Z" fill="#2c3847" stroke="#FFFFFF"></path><path d="M214 136L157 148L200 214Z" fill="#08d9d6" stroke="#FFFFFF"></path><path d="M100 187L114 245L138 233Z" fill="#2c3847" stroke="#FFFFFF"></path><path d="M338 39L280 55L345 88Z" fill="#32576f" stroke="#FFFFFF"></path><path d="M734 415L751 357L696 384Z" fill="#316882" stroke="#FFFFFF"></path><path d="M658 536L684 539L670 519Z" fill="#252a34" stroke="#FFFFFF"></path><path d="M670 519L721 480L696 455Z" fill="#00c6cd" stroke="#FFFFFF"></path><path d="M636 600L658 536L605 562Z" fill="#109fb5" stroke="#FFFFFF"></path><path d="M84 347L142 400L151 337Z" fill="#32576f" stroke="#FFFFFF"></path><path d="M153 449L155 520L183 465Z" fill="#218ca6" stroke="#FFFFFF"></path><path d="M736 500L721 480L670 519Z" fill="#2c3847" stroke="#FFFFFF"></path><path d="M810 397L800 361L751 357Z" fill="#00b2c2" stroke="#FFFFFF"></path><path d="M116 488L155 520L153 449Z" fill="#2b7a95" stroke="#FFFFFF"></path><path d="M193 530L229 600L261 530Z" fill="#2c3847" stroke="#FFFFFF"></path><path d="M209 600L229 600L193 530Z" fill="#00c6cd" stroke="#FFFFFF"></path><path d="M751 357L750 287L685 314Z" fill="#252a34" stroke="#FFFFFF"></path><path d="M718 270L737 214L671 270Z" fill="#316882" stroke="#FFFFFF"></path><path d="M280 55L253 63L312 107Z" fill="#00c6cd" stroke="#FFFFFF"></path><path d="M138 233L114 245L159 286Z" fill="#109fb5" stroke="#FFFFFF"></path><path d="M113 308L84 347L151 337Z" fill="#2b7a95" stroke="#FFFFFF"></path><path d="M100 187L138 233L153 212Z" fill="#32576f" stroke="#FFFFFF"></path><path d="M750 287L748 270L718 270Z" fill="#2b7a95" stroke="#FFFFFF"></path><path d="M129 96L157 148L155 65Z" fill="#2c3847" stroke="#FFFFFF"></path><path d="M219 101L157 148L214 136Z" fill="#218ca6" stroke="#FFFFFF"></path><path d="M587 600L636 600L605 562Z" fill="#218ca6" stroke="#FFFFFF"></path><path d="M748 270L737 214L718 270Z" fill="#08d9d6" stroke="#FFFFFF"></path><path d="M737 214L721 179L671 270Z" fill="#316882" stroke="#FFFFFF"></path><path d="M667 35L590 46L618 91Z" fill="#2c3847" stroke="#FFFFFF"></path><path d="M618 91L590 46L551 63Z" fill="#00b2c2" stroke="#FFFFFF"></path><path d="M721 179L690 129L640 141Z" fill="#00c6cd" stroke="#FFFFFF"></path><path d="M158 600L209 600L193 530Z" fill="#316882" stroke="#FFFFFF"></path><path d="M506 37L458 0L440 30Z" fill="#2b7a95" stroke="#FFFFFF"></path><path d="M440 30L390 0L401 43Z" fill="#00b2c2" stroke="#FFFFFF"></path><path d="M338 39L284 0L280 55Z" fill="#2c3847" stroke="#FFFFFF"></path><path d="M235 0L196 57L253 63Z" fill="#109fb5" stroke="#FFFFFF"></path><path d="M494 0L458 0L506 37Z" fill="#08d9d6" stroke="#FFFFFF"></path><path d="M458 0L390 0L440 30Z" fill="#08d9d6" stroke="#FFFFFF"></path><path d="M30 329L84 347L29 283Z" fill="#32576f" stroke="#FFFFFF"></path><path d="M87 462L116 488L153 449Z" fill="#00b2c2" stroke="#FFFFFF"></path><path d="M155 520L132 536L193 530Z" fill="#316882" stroke="#FFFFFF"></path><path d="M87 462L153 449L111 415Z" fill="#109fb5" stroke="#FFFFFF"></path><path d="M721 480L755 448L696 455Z" fill="#00b2c2" stroke="#FFFFFF"></path><path d="M751 357L785 298L750 287Z" fill="#00b2c2" stroke="#FFFFFF"></path><path d="M736 500L755 448L721 480Z" fill="#00c6cd" stroke="#FFFFFF"></path><path d="M553 0L494 0L506 37Z" fill="#316882" stroke="#FFFFFF"></path><path d="M390 0L357 0L401 43Z" fill="#218ca6" stroke="#FFFFFF"></path><path d="M729 535L736 500L684 539Z" fill="#109fb5" stroke="#FFFFFF"></path><path d="M684 539L736 500L670 519Z" fill="#109fb5" stroke="#FFFFFF"></path><path d="M690 129L670 82L640 141Z" fill="#00b2c2" stroke="#FFFFFF"></path><path d="M590 46L553 0L551 63Z" fill="#316882" stroke="#FFFFFF"></path><path d="M699 78L670 82L690 129Z" fill="#252a34" stroke="#FFFFFF"></path><path d="M116 488L132 536L155 520Z" fill="#2b7a95" stroke="#FFFFFF"></path><path d="M702 600L729 535L684 539Z" fill="#316882" stroke="#FFFFFF"></path><path d="M800 509L798 428L755 448Z" fill="#00c6cd" stroke="#FFFFFF"></path><path d="M750 287L785 298L748 270Z" fill="#2b7a95" stroke="#FFFFFF"></path><path d="M748 270L818 233L737 214Z" fill="#00b2c2" stroke="#FFFFFF"></path><path d="M770 149L690 129L721 179Z" fill="#218ca6" stroke="#FFFFFF"></path><path d="M743 94L699 78L690 129Z" fill="#252a34" stroke="#FFFFFF"></path><path d="M800 361L785 298L751 357Z" fill="#316882" stroke="#FFFFFF"></path><path d="M94 136L100 187L157 148Z" fill="#00c6cd" stroke="#FFFFFF"></path><path d="M157 148L100 187L153 212Z" fill="#00b2c2" stroke="#FFFFFF"></path><path d="M29 283L84 347L113 308Z" fill="#316882" stroke="#FFFFFF"></path><path d="M49 410L87 462L111 415Z" fill="#2b7a95" stroke="#FFFFFF"></path><path d="M116 488L106 563L132 536Z" fill="#252a34" stroke="#FFFFFF"></path><path d="M617 0L553 0L590 46Z" fill="#08d9d6" stroke="#FFFFFF"></path><path d="M235 0L253 63L280 55Z" fill="#218ca6" stroke="#FFFFFF"></path><path d="M253 63L196 57L219 101Z" fill="#31475b" stroke="#FFFFFF"></path><path d="M357 0L284 0L338 39Z" fill="#252a34" stroke="#FFFFFF"></path><path d="M798 428L734 415L755 448Z" fill="#2c3847" stroke="#FFFFFF"></path><path d="M810 397L751 357L734 415Z" fill="#08d9d6" stroke="#FFFFFF"></path><path d="M106 563L158 600L132 536Z" fill="#218ca6" stroke="#FFFFFF"></path><path d="M132 536L158 600L193 530Z" fill="#00c6cd" stroke="#FFFFFF"></path><path d="M770 149L721 179L737 214Z" fill="#316882" stroke="#FFFFFF"></path><path d="M670 82L667 35L618 91Z" fill="#08d9d6" stroke="#FFFFFF"></path><path d="M636 600L702 600L684 539Z" fill="#31475b" stroke="#FFFFFF"></path><path d="M800 509L755 448L736 500Z" fill="#08d9d6" stroke="#FFFFFF"></path><path d="M800 509L736 500L729 535Z" fill="#2b7a95" stroke="#FFFFFF"></path><path d="M30 329L49 410L84 347Z" fill="#316882" stroke="#FFFFFF"></path><path d="M84 347L49 410L111 415Z" fill="#08d9d6" stroke="#FFFFFF"></path><path d="M29 549L106 563L116 488Z" fill="#32576f" stroke="#FFFFFF"></path><path d="M155 65L157 148L219 101Z" fill="#08d9d6" stroke="#FFFFFF"></path><path d="M155 65L219 101L196 57Z" fill="#32576f" stroke="#FFFFFF"></path><path d="M798 428L810 397L734 415Z" fill="#08d9d6" stroke="#FFFFFF"></path><path d="M818 233L748 270L785 298Z" fill="#08d9d6" stroke="#FFFFFF"></path><path d="M150 0L155 65L196 57Z" fill="#2c3847" stroke="#FFFFFF"></path><path d="M699 78L667 35L670 82Z" fill="#218ca6" stroke="#FFFFFF"></path><path d="M667 35L617 0L590 46Z" fill="#2c3847" stroke="#FFFFFF"></path><path d="M284 0L235 0L280 55Z" fill="#00b2c2" stroke="#FFFFFF"></path><path d="M104 115L157 148L129 96Z" fill="#32576f" stroke="#FFFFFF"></path><path d="M104 115L94 136L157 148Z" fill="#2b7a95" stroke="#FFFFFF"></path><path d="M100 187L58 204L114 245Z" fill="#109fb5" stroke="#FFFFFF"></path><path d="M38 478L116 488L87 462Z" fill="#316882" stroke="#FFFFFF"></path><path d="M49 410L55 460L87 462Z" fill="#00c6cd" stroke="#FFFFFF"></path><path d="M816 217L770 149L737 214Z" fill="#08d9d6" stroke="#FFFFFF"></path><path d="M699 78L707 32L667 35Z" fill="#08d9d6" stroke="#FFFFFF"></path><path d="M818 233L785 298L845 251Z" fill="#252a34" stroke="#FFFFFF"></path><path d="M47 148L58 204L100 187Z" fill="#32576f" stroke="#FFFFFF"></path><path d="M94 38L104 115L129 96Z" fill="#08d9d6" stroke="#FFFFFF"></path><path d="M94 136L47 148L100 187Z" fill="#08d9d6" stroke="#FFFFFF"></path><path d="M37 260L113 308L114 245Z" fill="#109fb5" stroke="#FFFFFF"></path><path d="M0 435L38 478L55 460Z" fill="#2c3847" stroke="#FFFFFF"></path><path d="M58 204L37 260L114 245Z" fill="#2b7a95" stroke="#FFFFFF"></path><path d="M770 149L743 94L690 129Z" fill="#00b2c2" stroke="#FFFFFF"></path><path d="M702 600L734 600L729 535Z" fill="#316882" stroke="#FFFFFF"></path><path d="M845 390L833 357L810 397Z" fill="#31475b" stroke="#FFFFFF"></path><path d="M37 260L29 283L113 308Z" fill="#218ca6" stroke="#FFFFFF"></path><path d="M235 0L211 0L196 57Z" fill="#32576f" stroke="#FFFFFF"></path><path d="M33 90L94 136L104 115Z" fill="#2c3847" stroke="#FFFFFF"></path><path d="M833 357L785 298L800 361Z" fill="#316882" stroke="#FFFFFF"></path><path d="M770 149L790 133L743 94Z" fill="#00c6cd" stroke="#FFFFFF"></path><path d="M845 390L810 397L798 428Z" fill="#00c6cd" stroke="#FFFFFF"></path><path d="M810 397L833 357L800 361Z" fill="#00c6cd" stroke="#FFFFFF"></path><path d="M818 233L816 217L737 214Z" fill="#08d9d6" stroke="#FFFFFF"></path><path d="M819 562L800 509L729 535Z" fill="#08d9d6" stroke="#FFFFFF"></path><path d="M710 0L657 0L667 35Z" fill="#00c6cd" stroke="#FFFFFF"></path><path d="M667 35L657 0L617 0Z" fill="#08d9d6" stroke="#FFFFFF"></path><path d="M55 460L38 478L87 462Z" fill="#00c6cd" stroke="#FFFFFF"></path><path d="M0 435L55 460L49 410Z" fill="#00b2c2" stroke="#FFFFFF"></path><path d="M742 53L707 32L699 78Z" fill="#00c6cd" stroke="#FFFFFF"></path><path d="M742 53L699 78L743 94Z" fill="#2c3847" stroke="#FFFFFF"></path><path d="M816 217L790 133L770 149Z" fill="#32576f" stroke="#FFFFFF"></path><path d="M860 468L845 390L798 428Z" fill="#316882" stroke="#FFFFFF"></path><path d="M860 306L845 251L785 298Z" fill="#2c3847" stroke="#FFFFFF"></path><path d="M818 233L845 202L816 217Z" fill="#31475b" stroke="#FFFFFF"></path><path d="M796 96L742 53L743 94Z" fill="#218ca6" stroke="#FFFFFF"></path><path d="M707 32L710 0L667 35Z" fill="#32576f" stroke="#FFFFFF"></path><path d="M33 90L47 148L94 136Z" fill="#2c3847" stroke="#FFFFFF"></path><path d="M58 204L0 243L37 260Z" fill="#00b2c2" stroke="#FFFFFF"></path><path d="M0 243L0 320L29 283Z" fill="#32576f" stroke="#FFFFFF"></path><path d="M94 38L129 96L155 65Z" fill="#08d9d6" stroke="#FFFFFF"></path><path d="M46 600L89 600L106 563Z" fill="#252a34" stroke="#FFFFFF"></path><path d="M106 563L89 600L158 600Z" fill="#316882" stroke="#FFFFFF"></path><path d="M860 306L785 298L833 357Z" fill="#109fb5" stroke="#FFFFFF"></path><path d="M816 217L845 202L790 133Z" fill="#00b2c2" stroke="#FFFFFF"></path><path d="M29 283L0 320L30 329Z" fill="#2c3847" stroke="#FFFFFF"></path><path d="M30 329L0 371L49 410Z" fill="#2c3847" stroke="#FFFFFF"></path><path d="M0 243L29 283L37 260Z" fill="#00c6cd" stroke="#FFFFFF"></path><path d="M0 320L0 371L30 329Z" fill="#109fb5" stroke="#FFFFFF"></path><path d="M0 371L0 410L49 410Z" fill="#109fb5" stroke="#FFFFFF"></path><path d="M38 478L29 549L116 488Z" fill="#08d9d6" stroke="#FFFFFF"></path><path d="M900 348L860 306L833 357Z" fill="#316882" stroke="#FFFFFF"></path><path d="M0 410L0 435L49 410Z" fill="#08d9d6" stroke="#FFFFFF"></path><path d="M0 203L0 243L58 204Z" fill="#32576f" stroke="#FFFFFF"></path><path d="M211 0L150 0L196 57Z" fill="#08d9d6" stroke="#FFFFFF"></path><path d="M900 214L845 202L845 251Z" fill="#00c6cd" stroke="#FFFFFF"></path><path d="M845 251L845 202L818 233Z" fill="#109fb5" stroke="#FFFFFF"></path><path d="M790 133L796 96L743 94Z" fill="#2b7a95" stroke="#FFFFFF"></path><path d="M852 128L796 96L790 133Z" fill="#31475b" stroke="#FFFFFF"></path><path d="M737 0L707 32L742 53Z" fill="#00b2c2" stroke="#FFFFFF"></path><path d="M737 0L710 0L707 32Z" fill="#2c3847" stroke="#FFFFFF"></path><path d="M734 600L792 600L729 535Z" fill="#109fb5" stroke="#FFFFFF"></path><path d="M800 509L860 468L798 428Z" fill="#218ca6" stroke="#FFFFFF"></path><path d="M47 148L0 203L58 204Z" fill="#2c3847" stroke="#FFFFFF"></path><path d="M0 137L0 203L47 148Z" fill="#316882" stroke="#FFFFFF"></path><path d="M0 520L29 549L38 478Z" fill="#31475b" stroke="#FFFFFF"></path><path d="M150 0L94 38L155 65Z" fill="#2b7a95" stroke="#FFFFFF"></path><path d="M792 600L819 562L729 535Z" fill="#109fb5" stroke="#FFFFFF"></path><path d="M845 390L900 348L833 357Z" fill="#316882" stroke="#FFFFFF"></path><path d="M847 513L860 468L800 509Z" fill="#2b7a95" stroke="#FFFFFF"></path><path d="M819 562L847 513L800 509Z" fill="#109fb5" stroke="#FFFFFF"></path><path d="M797 0L737 0L742 53Z" fill="#08d9d6" stroke="#FFFFFF"></path><path d="M29 549L46 600L106 563Z" fill="#00c6cd" stroke="#FFFFFF"></path><path d="M0 435L0 520L38 478Z" fill="#08d9d6" stroke="#FFFFFF"></path><path d="M29 549L0 562L46 600Z" fill="#109fb5" stroke="#FFFFFF"></path><path d="M94 38L33 90L104 115Z" fill="#218ca6" stroke="#FFFFFF"></path><path d="M900 415L845 390L860 468Z" fill="#252a34" stroke="#FFFFFF"></path><path d="M900 415L900 348L845 390Z" fill="#218ca6" stroke="#FFFFFF"></path><path d="M860 306L900 289L845 251Z" fill="#00c6cd" stroke="#FFFFFF"></path><path d="M0 110L0 137L47 148Z" fill="#2c3847" stroke="#FFFFFF"></path><path d="M845 202L852 128L790 133Z" fill="#00b2c2" stroke="#FFFFFF"></path><path d="M796 96L814 33L742 53Z" fill="#2b7a95" stroke="#FFFFFF"></path><path d="M900 163L852 128L845 202Z" fill="#08d9d6" stroke="#FFFFFF"></path><path d="M900 348L900 289L860 306Z" fill="#316882" stroke="#FFFFFF"></path><path d="M900 442L900 415L860 468Z" fill="#00b2c2" stroke="#FFFFFF"></path><path d="M150 0L89 0L94 38Z" fill="#00b2c2" stroke="#FFFFFF"></path><path d="M94 38L28 49L33 90Z" fill="#218ca6" stroke="#FFFFFF"></path><path d="M33 90L0 110L47 148Z" fill="#32576f" stroke="#FFFFFF"></path><path d="M900 289L900 254L845 251Z" fill="#2c3847" stroke="#FFFFFF"></path><path d="M0 520L0 562L29 549Z" fill="#00b2c2" stroke="#FFFFFF"></path><path d="M900 492L900 442L860 468Z" fill="#218ca6" stroke="#FFFFFF"></path><path d="M900 492L860 468L847 513Z" fill="#252a34" stroke="#FFFFFF"></path><path d="M0 62L0 110L33 90Z" fill="#08d9d6" stroke="#FFFFFF"></path><path d="M792 600L840 600L819 562Z" fill="#2b7a95" stroke="#FFFFFF"></path><path d="M819 562L868 570L847 513Z" fill="#31475b" stroke="#FFFFFF"></path><path d="M900 254L900 214L845 251Z" fill="#316882" stroke="#FFFFFF"></path><path d="M900 163L865 116L852 128Z" fill="#2c3847" stroke="#FFFFFF"></path><path d="M852 128L865 116L796 96Z" fill="#31475b" stroke="#FFFFFF"></path><path d="M851 51L814 33L796 96Z" fill="#316882" stroke="#FFFFFF"></path><path d="M36 0L28 49L94 38Z" fill="#109fb5" stroke="#FFFFFF"></path><path d="M900 539L900 492L847 513Z" fill="#31475b" stroke="#FFFFFF"></path><path d="M840 600L868 570L819 562Z" fill="#2c3847" stroke="#FFFFFF"></path><path d="M0 562L0 600L46 600Z" fill="#31475b" stroke="#FFFFFF"></path><path d="M871 0L797 0L814 33Z" fill="#218ca6" stroke="#FFFFFF"></path><path d="M814 33L797 0L742 53Z" fill="#109fb5" stroke="#FFFFFF"></path><path d="M900 214L900 163L845 202Z" fill="#2b7a95" stroke="#FFFFFF"></path><path d="M865 116L851 51L796 96Z" fill="#31475b" stroke="#FFFFFF"></path><path d="M0 0L0 62L28 49Z" fill="#32576f" stroke="#FFFFFF"></path><path d="M28 49L0 62L33 90Z" fill="#32576f" stroke="#FFFFFF"></path><path d="M900 600L900 539L868 570Z" fill="#109fb5" stroke="#FFFFFF"></path><path d="M868 570L900 539L847 513Z" fill="#252a34" stroke="#FFFFFF"></path><path d="M900 68L851 51L865 116Z" fill="#08d9d6" stroke="#FFFFFF"></path><path d="M89 0L36 0L94 38Z" fill="#252a34" stroke="#FFFFFF"></path><path d="M900 163L900 99L865 116Z" fill="#32576f" stroke="#FFFFFF"></path><path d="M840 600L900 600L868 570Z" fill="#32576f" stroke="#FFFFFF"></path><path d="M900 99L900 68L865 116Z" fill="#2b7a95" stroke="#FFFFFF"></path><path d="M851 51L871 0L814 33Z" fill="#218ca6" stroke="#FFFFFF"></path><path d="M36 0L0 0L28 49Z" fill="#00c6cd" stroke="#FFFFFF"></path><path d="M900 68L871 0L851 51Z" fill="#109fb5" stroke="#FFFFFF"></path><path d="M900 68L900 0L871 0Z" fill="#218ca6" stroke="#FFFFFF"></path></g></svg>